<?xml version="1.0" encoding="utf-8"?>
<!-- Generator: Adobe Illustrator 15.1.0, SVG Export Plug-In . SVG Version: 6.00 Build 0)  -->
<!DOCTYPE svg PUBLIC "-//W3C//DTD SVG 1.1//EN" "http://www.w3.org/Graphics/SVG/1.1/DTD/svg11.dtd">
<svg version="1.1" xmlns="http://www.w3.org/2000/svg" xmlns:xlink="http://www.w3.org/1999/xlink" x="0px" y="0px" width="200px"
	 height="300px" viewBox="0 0 200 300" enable-background="new 0 0 200 300" xml:space="preserve">
<g id="Ebene_1">
	<circle fill="#E94E1B" stroke="#000000" stroke-miterlimit="10" cx="102.721" cy="57.477" r="20.27"/>
	<path fill="#FFFFFF" stroke="#000000" stroke-miterlimit="10" d="M102.721,124.001"/>
</g>
<g id="Ebene_2" display="none">
	<polyline display="inline" fill="#FFFFFF" stroke="#000000" stroke-miterlimit="10" points="91.541,89.747 91.541,95 
		91.541,220.668 	"/>
</g>
<g id="Ebene_3">
	<path fill="#E94E1B" stroke="#000000" stroke-miterlimit="10" d="M127.821,100.887l-25.105,38.226v23.36l-1.791,33.543
		c0,0-3.023,9.964,2.777,17.597c6.129,8.062,27.557,40.17,27.557,40.17s4.501,4.102,6.501-1.489c0,0,2.385-7.826,0.46-14.535
		c-1.926-6.708-18.021-29.443-18.021-29.443s-2.94-4.849-1.94-8.2c1-3.354,7.666-27.952,9-33.914
		C128.592,160.236,127.821,100.887,127.821,100.887z"/>
	<path fill="#E94E1B" stroke="#000000" stroke-miterlimit="10" d="M77.62,100.215l25.104,38.226v23.361l1.792,33.542
		c0,0,3.022,9.965-2.777,17.595c-6.128,8.062-27.556,40.173-27.556,40.173s-4.501,4.099-6.501-1.492c0,0-2.385-7.826-0.459-14.535
		c1.925-6.708,18.02-29.441,18.02-29.441s2.941-4.848,1.941-8.202c-1-3.352-7.667-27.95-9-33.914
		C76.85,159.566,77.62,100.215,77.62,100.215z"/>
	<polyline fill="#E94E1B" stroke="#000000" stroke-miterlimit="10" points="106.618,88.312 124.969,109.086 119.679,120.752 
		111.306,150.291 92.479,140.086 82.576,109.752 86.013,97.086 96.181,87.5 	"/>
	<path fill="#E94E1B" stroke="#000000" stroke-miterlimit="10" d="M102.924,87.947c0,0-9.077,1.213-13.744-6.613H76.514
		c0,0-5.334,0.388-7.667,6.157c0,0-1.333,6.142,0,13.596c0,0,1.242,8.52,4.667,16.398c0,0,1.581,2.744,4.103,6.992
		c8.823,14.86,29.158,48.127,33.564,46.677c0,0,4.666-2.609,1.777-10.062l-26.111-51.06"/>
	<path fill="#E94E1B" stroke="#000000" stroke-miterlimit="10" d="M102.404,87.991c0,0,8.729,1.169,13.395-6.657h12.667
		c0,0,5.334,0.388,7.667,6.157c0,0,1.334,6.142,0,13.596c0,0-1.242,8.52-4.667,16.399c0,0-1.581,2.744-4.103,6.991
		c-8.823,14.86-29.158,48.127-33.564,46.677c0,0-4.666-2.609-1.777-10.062l26.111-51.06"/>
</g>
</svg>
